<svg xmlns="http://www.w3.org/2000/svg" viewBox="0 0 1055.62 315"><path d="M377.46 272.7H508.4a8 8 0 0 1 8 8v25.8a8 8 0 0 1-8 8H325.07a8 8 0 0 1-8-8V8.5a8 8 0 0 1 8-8h36.3a8 8 0 0 1 8 8v256.15a8 8 0 0 0 8.09 8.05zM543.2 306.5V8.5a8 8 0 0 1 8-8H646q52 0 81.28 21.47t29.32 64.18a63.1 63.1 0 0 1-11.75 37.32q-11.72 16.53-32.63 25.19 30.18 5 46.46 26.1T775 224.38q0 44.23-28.89 67.2t-79.77 23h-115.1a8 8 0 0 1-8.04-8.08zm52.39-181.86a8 8 0 0 0 8 8h48q24.36 0 38.48-11.54t14.12-32.68q0-23.3-14.88-34.62T646 42.52h-42.4a8 8 0 0 0-8 8zm0 55.14v84.86a8 8 0 0 0 8 8h62.71q27.16 0 41.83-12.4t14.66-35.92q0-23.73-14.44-37.75t-40.53-14.88h-64.19a8 8 0 0 0-8.04 8.1zM805 306.5V8.5a8 8 0 0 1 8-8h94.79q52 0 81.28 21.47t29.32 64.18a63.1 63.1 0 0 1-11.75 37.32Q994.95 140 974 148.66q30.18 5 46.46 26.1t16.28 49.62q0 44.23-28.89 67.2t-79.77 23H813.06a8 8 0 0 1-8.06-8.08zm52.4-181.86a8 8 0 0 0 8 8h48q24.36 0 38.48-11.54T966 88.42q0-23.3-14.88-34.62t-43.27-11.28h-42.4a8 8 0 0 0-8 8zm0 55.14v84.86a8 8 0 0 0 8 8h62.67q27.16 0 41.83-12.4t14.66-35.92q0-23.73-14.44-37.75t-40.53-14.88h-64.14a8 8 0 0 0-8.05 8.1zM64.63 185.32s10.53 10 23 0l160-128.2V22.9A22.45 22.45 0 0 0 225.2.45h-183A22.52 22.52 0 0 0 19.78 22.9v120.18z" fill="#121213"></path><path d="M91.29 219.9s-14.71 13.33-28.59 0l-43.1-34.8v113.1c0 6.28 4 11.58 9.56 14.47a16.54 16.54 0 0 0 17.09-1.08l81.84-56.47a10 10 0 0 1 11.36 0l81.87 56.47a16.74 16.74 0 0 0 9.49 3 17.17 17.17 0 0 0 7.91-1.92A16.74 16.74 0 0 0 248 298V97z" fill="#121213"></path></svg>
